<?xml version="1.0" encoding="utf-8"?>
<!-- Generator: Adobe Illustrator 25.2.3, SVG Export Plug-In . SVG Version: 6.00 Build 0)  -->
<svg version="1.1" id="Layer_1" xmlns="http://www.w3.org/2000/svg" xmlns:xlink="http://www.w3.org/1999/xlink" x="0px" y="0px"
	 viewBox="0 0 500 500" style="enable-background:new 0 0 500 500;" xml:space="preserve">
<g>
	<g>
		<path d="M237.46,218.73c0,25.4,0,50.79,0,76.19c0,6.43,10,6.45,10,0c0-25.4,0-50.79,0-76.19
			C247.46,212.3,237.46,212.29,237.46,218.73L237.46,218.73z"/>
	</g>
</g>
<g>
	<g>
		<path d="M271.94,218.68c0,25.4,0,50.79,0,76.19c0,6.43,10,6.45,10,0c0-25.4,0-50.79,0-76.19
			C281.94,212.25,271.94,212.24,271.94,218.68L271.94,218.68z"/>
	</g>
</g>
<g>
	<g>
		<path d="M202.94,218.68c0,25.4,0,50.79,0,76.19c0,6.43,10,6.45,10,0c0-25.4,0-50.79,0-76.19
			C212.94,212.25,202.94,212.24,202.94,218.68L202.94,218.68z"/>
	</g>
</g>
<g>
	<g>
		<path d="M245.53,258.75c8.81,0,17.61,0,26.42,0c6.43,0,6.45-10,0-10c-8.81,0-17.61,0-26.42,0
			C239.09,248.75,239.08,258.75,245.53,258.75L245.53,258.75z"/>
	</g>
</g>
<g>
	<g>
		<path d="M211.34,257.69c10.83-12.3,22.2-24.09,34.11-35.34c4.69-4.43-2.39-11.49-7.07-7.07c-11.91,11.26-23.28,23.04-34.11,35.34
			C200.03,255.43,207.08,262.53,211.34,257.69L211.34,257.69z"/>
	</g>
</g>
<g>
	<g>
		<path d="M205.5,255.04c13.18,12.8,22.74,28.22,32.14,43.87c3.31,5.51,11.96,0.49,8.63-5.05c-9.83-16.35-19.94-32.52-33.71-45.89
			C207.95,243.48,200.87,250.54,205.5,255.04L205.5,255.04z"/>
	</g>
</g>
</svg>
